0
SECTION
2
TABLES
0
TABLE
2
LAYER
0
LAYER
70
0
2
shiti
62
10
6
CONTINUOUS
0
LAYER
70
0
2
zhuji
62
50
6
CONTINUOUS
0
LAYER
70
0
2
qita
62
90
6
CONTINUOUS
0
ENDTAB
0
ENDSEC
0
SECTION
2
ENTITIES
0
POINT
8
shiti
10
421.88
20
414.28
30
39.555
0
POINT
8
shiti
10
425.02
20
387.8
30
36.8774
0
POINT
8
shiti
10
426.62
20
359.06
30
31.225
0
POINT
8
shiti
10
425.53
20
348.04
30
27.416
0
POINT
8
shiti
10
440.31
20
344.57
30
27.7945
0
POINT
8
shiti
10
454.84
20
352.89
30
28.4999
0
POINT
8
shiti
10
442.45
20
402.88
30
37.951
0
POINT
8
shiti
10
393.86
20
393.47
30
32.5395
0
POINT
8
shiti
10
387.57
20
358.85
30
29.426
0
POINT
8
shiti
10
376.62
20
358.59
30
29.223
0
POINT
8
shiti
10
364.21
20
348.66
30
28.2538
0
POINT
8
shiti
10
340.89
20
362.8
30
26.8212
0
POINT
8
shiti
10
347.62
20
335.73
30
26.2299
0
POINT
8
shiti
10
362.69
20
331.84
30
26.6612
0
POINT
8
shiti
10
402.35
20
351.82
30
28.4848
0
POINT
8
shiti
10
399.61
20
335.09
30
26.6922
0
POINT
8
shiti
10
333.34
20
331.15
30
24.6894
0
POINT
8
shiti
10
322.26
20
344.1
30
24.3684
0
POINT
8
shiti
10
381.66
20
326.8
30
26.7581
0
POINT
8
shiti
10
331.42
20
396.59
30
28.7137
0
POINT
8
shiti
10
317.25
20
372.7
30
25.8215
0
POINT
8
shiti
10
313.74
20
404.54
30
26.9055
0
POINT
8
shiti
10
349.16
20
416.04
30
31.7509
0
POINT
8
shiti
10
367.77
20
424.7
30
34.8919
0
POINT
8
shiti
10
383.5
20
414.85
30
37.4818
0
POINT
8
shiti
10
370.21
20
399.59
30
32.5866
0
POINT
8
shiti
10
353.32
20
386.89
30
30.5459
0
POINT
8
shiti
10
336.82
20
383.23
30
29.2504
0
POINT
8
shiti
10
322.59
20
421.13
30
27.7593
0
POINT
8
shiti
10
316.53
20
468.29
30
27.0276
0
POINT
8
shiti
10
313.32
20
434.93
30
26.5662
0
POINT
8
shiti
10
324.05
20
456.71
30
28.8742
0
POINT
8
shiti
10
372.23
20
491.54
30
33.0459
0
POINT
8
shiti
10
363.75
20
470.83
30
32.6194
0
POINT
8
shiti
10
397.87
20
414.07
30
39.5041
0
POINT
8
shiti
10
368.77
20
446.84
30
34.5865
0
POINT
8
shiti
10
313.25
20
438
30
30.1398
0
POINT
8
shiti
10
344.36
20
456.08
30
30.1871
0
POINT
8
shiti
10
401.02
20
472.76
30
38.5963
0
POINT
8
shiti
10
432.82
20
479.13
30
42.3405
0
POINT
8
shiti
10
422.7
20
499.63
30
40.7577
0
POINT
8
shiti
10
402.93
20
492.35
30
37.9286
0
POINT
8
shiti
10
390.16
20
489.32
30
36.34
0
POINT
8
shiti
10
383.25
20
449.7
30
36.9367
0
POINT
8
shiti
10
406.78
20
444.56
30
41.6945
0
POINT
8
shiti
10
427.23
20
464.5
30
43.5075
0
POINT
8
shiti
10
439.93
20
503.6
30
41.0365
0
POINT
8
shiti
10
437.89
20
515.85
30
39.9929
0
POINT
8
shiti
10
493.01
20
505.89
30
33.8673
0
POINT
8
shiti
10
490.18
20
485.63
30
36.4479
0
POINT
8
shiti
10
472.49
20
493.83
30
39.8801
0
POINT
8
shiti
10
450.67
20
482.52
30
42.3327
0
POINT
8
shiti
10
461.98
20
508.1
30
40.2172
0
POINT
8
shiti
10
382.32
20
513.7
30
36.919
0
POINT
8
shiti
10
466.79
20
532.14
30
37.7726
0
POINT
8
shiti
10
446.42
20
547.81
30
38.3385
0
POINT
8
shiti
10
429.29
20
555.09
30
37.5484
0
POINT
8
shiti
10
466.8
20
550.59
30
37.233
0
POINT
8
shiti
10
490.08
20
542.39
30
33.8351
0
POINT
8
shiti
10
481.02
20
562.32
30
34.4659
0
POINT
8
shiti
10
461.23
20
582.49
30
34.1418
0
POINT
8
shiti
10
474.09
20
585.43
30
32.5303
0
POINT
8
shiti
10
464.84
20
596.28
30
31.7542
0
POINT
8
shiti
10
494.1
20
573.76
30
31.3335
0
POINT
8
shiti
10
505.61
20
567.67
30
29.5076
0
POINT
8
shiti
10
465.51
20
435.85
30
40.6101
0
POINT
8
shiti
10
438.86
20
446.92
30
43.5085
0
POINT
8
shiti
10
462.16
20
451.21
30
42.1787
0
POINT
8
shiti
10
442.84
20
425.14
30
42.2289
0
POINT
8
shiti
10
471.64
20
465.83
30
41.4353
0
POINT
8
shiti
10
478.39
20
444.54
30
39.4434
0
POINT
8
shiti
10
489.73
20
436.92
30
35.15
0
POINT
8
shiti
10
502.75
20
446.87
30
32.0204
0
POINT
8
shiti
10
499.59
20
424.8
30
31.1902
0
POINT
8
shiti
10
477.23
20
415.55
30
36.1728
0
POINT
8
shiti
10
459.37
20
405.41
30
36.2749
0
POINT
8
shiti
10
487.67
20
407.98
30
31.2808
0
POINT
8
shiti
10
511.39
20
410.21
30
29.09
0
POINT
8
shiti
10
495.92
20
392.51
30
29.1024
0
POINT
8
shiti
10
524.73
20
434.96
30
28.8913
0
POINT
8
shiti
10
523.57
20
415.92
30
28.6408
0
POINT
8
shiti
10
504.81
20
381.47
30
28.3432
0
POINT
8
shiti
10
495.85
20
365.02
30
27.6838
0
POINT
8
shiti
10
500.58
20
352.99
30
26.1047
0
POINT
8
shiti
10
486.82
20
348.82
30
26.2623
0
POINT
8
shiti
10
471.08
20
350.47
30
27.5493
0
POINT
8
shiti
10
521.57
20
357.64
30
25.8516
0
POINT
8
shiti
10
526.14
20
387.14
30
25.9322
0
POINT
8
shiti
10
538.09
20
418.4
30
25.2847
0
POINT
8
shiti
10
533.77
20
448.49
30
25.8802
0
POINT
8
shiti
10
494.46
20
465.16
30
34.603
0
POINT
8
shiti
10
508.1
20
458.79
30
31.0874
0
POINT
8
shiti
10
519.64
20
503.63
30
28.9581
0
POINT
8
shiti
10
505.74
20
504.38
30
29.4945
0
POINT
8
shiti
10
513.9
20
487.85
30
29.3574
0
POINT
8
shiti
10
522.38
20
473.73
30
28.2401
0
POINT
8
shiti
10
534.46
20
474.65
30
28.1753
0
POINT
8
shiti
10
537.72
20
501.33
30
27.601
0
POINT
8
shiti
10
530.08
20
526.89
30
29.1993
0
POINT
8
shiti
10
519.63
20
538.63
30
29.2767
0
POINT
8
shiti
10
431.95
20
327.38
30
26.6129
0
POINT
8
shiti
10
419.39
20
326.22
30
26.2965
0
POINT
8
shiti
10
400.14
20
591.41
30
31.3133
0
POINT
8
shiti
10
375.51
20
580.18
30
30.2236
0
POINT
8
shiti
10
381.36
20
603.18
30
28.8233
0
POINT
8
shiti
10
341.71
20
529.15
30
27.0601
0
POINT
8
shiti
10
408.9
20
583.86
30
33.6867
0
POINT
8
shiti
10
419.84
20
565.07
30
36.2957
0
POINT
8
shiti
10
402.71
20
544.34
30
36.3476
0
POINT
8
shiti
10
403.82
20
568.31
30
34.7975
0
POINT
8
shiti
10
388.7
20
517.51
30
35.1603
0
POINT
8
shiti
10
366.48
20
521.11
30
31.672
0
POINT
8
shiti
10
349.28
20
539.64
30
29.138
0
POINT
8
shiti
10
335.71
20
506.62
30
26.9185
0
POINT
8
shiti
10
350.97
20
505.15
30
29.6483
0
POINT
8
shiti
10
379.74
20
494.79
30
33.5259
0
POINT
8
shiti
10
374.64
20
511.44
30
33.1928
0
POINT
8
shiti
10
354.75
20
493.14
30
30.8649
0
POINT
8
shiti
10
508.67
20
549.66
30
30.3146
0
POINT
8
shiti
10
500.28
20
369.18
30
27.7
0
POINT
8
shiti
10
431.06
20
442.8
30
43.9
0
POINT
8
shiti
10
444.08
20
455.78
30
43.46
0
POINT
8
shiti
10
374.57
20
461.02
30
35.5
0
POINT
8
shiti
10
388.9
20
437.3
30
38.2
0
POINT
8
shiti
10
407.54
20
399.61
30
37
0
POINT
8
shiti
10
450.64
20
514.12
30
40.1
0
TEXT
8
zhuji
10
421.88
20
414.28
40
1
1
1
0
TEXT
8
zhuji
10
425.02
20
387.8
40
1
1
2
0
TEXT
8
zhuji
10
426.62
20
359.06
40
1
1
3
0
TEXT
8
zhuji
10
425.53
20
348.04
40
1
1
4
0
TEXT
8
zhuji
10
440.31
20
344.57
40
1
1
5
0
TEXT
8
zhuji
10
454.84
20
352.89
40
1
1
6
0
TEXT
8
zhuji
10
442.45
20
402.88
40
1
1
7
0
TEXT
8
zhuji
10
393.86
20
393.47
40
1
1
8
0
TEXT
8
zhuji
10
387.57
20
358.85
40
1
1
9
0
TEXT
8
zhuji
10
376.62
20
358.59
40
1
1
10
0
TEXT
8
zhuji
10
364.21
20
348.66
40
1
1
11
0
TEXT
8
zhuji
10
340.89
20
362.8
40
1
1
12
0
TEXT
8
zhuji
10
347.62
20
335.73
40
1
1
13
0
TEXT
8
zhuji
10
362.69
20
331.84
40
1
1
14
0
TEXT
8
zhuji
10
402.35
20
351.82
40
1
1
15
0
TEXT
8
zhuji
10
399.61
20
335.09
40
1
1
16
0
TEXT
8
zhuji
10
333.34
20
331.15
40
1
1
17
0
TEXT
8
zhuji
10
322.26
20
344.1
40
1
1
18
0
TEXT
8
zhuji
10
381.66
20
326.8
40
1
1
19
0
TEXT
8
zhuji
10
331.42
20
396.59
40
1
1
20
0
TEXT
8
zhuji
10
317.25
20
372.7
40
1
1
21
0
TEXT
8
zhuji
10
313.74
20
404.54
40
1
1
22
0
TEXT
8
zhuji
10
349.16
20
416.04
40
1
1
23
0
TEXT
8
zhuji
10
367.77
20
424.7
40
1
1
24
0
TEXT
8
zhuji
10
383.5
20
414.85
40
1
1
25
0
TEXT
8
zhuji
10
370.21
20
399.59
40
1
1
26
0
TEXT
8
zhuji
10
353.32
20
386.89
40
1
1
27
0
TEXT
8
zhuji
10
336.82
20
383.23
40
1
1
28
0
TEXT
8
zhuji
10
322.59
20
421.13
40
1
1
29
0
TEXT
8
zhuji
10
316.53
20
468.29
40
1
1
30
0
TEXT
8
zhuji
10
313.32
20
434.93
40
1
1
31
0
TEXT
8
zhuji
10
324.05
20
456.71
40
1
1
32
0
TEXT
8
zhuji
10
372.23
20
491.54
40
1
1
33
0
TEXT
8
zhuji
10
363.75
20
470.83
40
1
1
34
0
TEXT
8
zhuji
10
397.87
20
414.07
40
1
1
35
0
TEXT
8
zhuji
10
368.77
20
446.84
40
1
1
36
0
TEXT
8
zhuji
10
313.25
20
438
40
1
1
37
0
TEXT
8
zhuji
10
344.36
20
456.08
40
1
1
38
0
TEXT
8
zhuji
10
401.02
20
472.76
40
1
1
39
0
TEXT
8
zhuji
10
432.82
20
479.13
40
1
1
40
0
TEXT
8
zhuji
10
422.7
20
499.63
40
1
1
41
0
TEXT
8
zhuji
10
402.93
20
492.35
40
1
1
42
0
TEXT
8
zhuji
10
390.16
20
489.32
40
1
1
43
0
TEXT
8
zhuji
10
383.25
20
449.7
40
1
1
44
0
TEXT
8
zhuji
10
406.78
20
444.56
40
1
1
45
0
TEXT
8
zhuji
10
427.23
20
464.5
40
1
1
46
0
TEXT
8
zhuji
10
439.93
20
503.6
40
1
1
47
0
TEXT
8
zhuji
10
437.89
20
515.85
40
1
1
48
0
TEXT
8
zhuji
10
493.01
20
505.89
40
1
1
49
0
TEXT
8
zhuji
10
490.18
20
485.63
40
1
1
50
0
TEXT
8
zhuji
10
472.49
20
493.83
40
1
1
51
0
TEXT
8
zhuji
10
450.67
20
482.52
40
1
1
52
0
TEXT
8
zhuji
10
461.98
20
508.1
40
1
1
53
0
TEXT
8
zhuji
10
382.32
20
513.7
40
1
1
54
0
TEXT
8
zhuji
10
466.79
20
532.14
40
1
1
55
0
TEXT
8
zhuji
10
446.42
20
547.81
40
1
1
56
0
TEXT
8
zhuji
10
429.29
20
555.09
40
1
1
57
0
TEXT
8
zhuji
10
466.8
20
550.59
40
1
1
58
0
TEXT
8
zhuji
10
490.08
20
542.39
40
1
1
59
0
TEXT
8
zhuji
10
481.02
20
562.32
40
1
1
60
0
TEXT
8
zhuji
10
461.23
20
582.49
40
1
1
61
0
TEXT
8
zhuji
10
474.09
20
585.43
40
1
1
62
0
TEXT
8
zhuji
10
464.84
20
596.28
40
1
1
63
0
TEXT
8
zhuji
10
494.1
20
573.76
40
1
1
64
0
TEXT
8
zhuji
10
505.61
20
567.67
40
1
1
65
0
TEXT
8
zhuji
10
465.51
20
435.85
40
1
1
66
0
TEXT
8
zhuji
10
438.86
20
446.92
40
1
1
67
0
TEXT
8
zhuji
10
462.16
20
451.21
40
1
1
68
0
TEXT
8
zhuji
10
442.84
20
425.14
40
1
1
69
0
TEXT
8
zhuji
10
471.64
20
465.83
40
1
1
70
0
TEXT
8
zhuji
10
478.39
20
444.54
40
1
1
71
0
TEXT
8
zhuji
10
489.73
20
436.92
40
1
1
72
0
TEXT
8
zhuji
10
502.75
20
446.87
40
1
1
73
0
TEXT
8
zhuji
10
499.59
20
424.8
40
1
1
74
0
TEXT
8
zhuji
10
477.23
20
415.55
40
1
1
75
0
TEXT
8
zhuji
10
459.37
20
405.41
40
1
1
76
0
TEXT
8
zhuji
10
487.67
20
407.98
40
1
1
77
0
TEXT
8
zhuji
10
511.39
20
410.21
40
1
1
78
0
TEXT
8
zhuji
10
495.92
20
392.51
40
1
1
79
0
TEXT
8
zhuji
10
524.73
20
434.96
40
1
1
80
0
TEXT
8
zhuji
10
523.57
20
415.92
40
1
1
81
0
TEXT
8
zhuji
10
504.81
20
381.47
40
1
1
82
0
TEXT
8
zhuji
10
495.85
20
365.02
40
1
1
83
0
TEXT
8
zhuji
10
500.58
20
352.99
40
1
1
84
0
TEXT
8
zhuji
10
486.82
20
348.82
40
1
1
85
0
TEXT
8
zhuji
10
471.08
20
350.47
40
1
1
86
0
TEXT
8
zhuji
10
521.57
20
357.64
40
1
1
87
0
TEXT
8
zhuji
10
526.14
20
387.14
40
1
1
88
0
TEXT
8
zhuji
10
538.09
20
418.4
40
1
1
89
0
TEXT
8
zhuji
10
533.77
20
448.49
40
1
1
90
0
TEXT
8
zhuji
10
494.46
20
465.16
40
1
1
91
0
TEXT
8
zhuji
10
508.1
20
458.79
40
1
1
92
0
TEXT
8
zhuji
10
519.64
20
503.63
40
1
1
93
0
TEXT
8
zhuji
10
505.74
20
504.38
40
1
1
94
0
TEXT
8
zhuji
10
513.9
20
487.85
40
1
1
95
0
TEXT
8
zhuji
10
522.38
20
473.73
40
1
1
96
0
TEXT
8
zhuji
10
534.46
20
474.65
40
1
1
97
0
TEXT
8
zhuji
10
537.72
20
501.33
40
1
1
98
0
TEXT
8
zhuji
10
530.08
20
526.89
40
1
1
99
0
TEXT
8
zhuji
10
519.63
20
538.63
40
1
1
100
0
TEXT
8
zhuji
10
431.95
20
327.38
40
1
1
101
0
TEXT
8
zhuji
10
419.39
20
326.22
40
1
1
102
0
TEXT
8
zhuji
10
400.14
20
591.41
40
1
1
103
0
TEXT
8
zhuji
10
375.51
20
580.18
40
1
1
104
0
TEXT
8
zhuji
10
381.36
20
603.18
40
1
1
105
0
TEXT
8
zhuji
10
341.71
20
529.15
40
1
1
106
0
TEXT
8
zhuji
10
408.9
20
583.86
40
1
1
107
0
TEXT
8
zhuji
10
419.84
20
565.07
40
1
1
108
0
TEXT
8
zhuji
10
402.71
20
544.34
40
1
1
109
0
TEXT
8
zhuji
10
403.82
20
568.31
40
1
1
110
0
TEXT
8
zhuji
10
388.7
20
517.51
40
1
1
111
0
TEXT
8
zhuji
10
366.48
20
521.11
40
1
1
112
0
TEXT
8
zhuji
10
349.28
20
539.64
40
1
1
113
0
TEXT
8
zhuji
10
335.71
20
506.62
40
1
1
114
0
TEXT
8
zhuji
10
350.97
20
505.15
40
1
1
115
0
TEXT
8
zhuji
10
379.74
20
494.79
40
1
1
116
0
TEXT
8
zhuji
10
374.64
20
511.44
40
1
1
117
0
TEXT
8
zhuji
10
354.75
20
493.14
40
1
1
118
0
TEXT
8
zhuji
10
508.67
20
549.66
40
1
1
119
0
TEXT
8
zhuji
10
500.28
20
369.18
40
1
1
120
0
TEXT
8
zhuji
10
431.06
20
442.8
40
1
1
121
0
TEXT
8
zhuji
10
444.08
20
455.78
40
1
1
122
0
TEXT
8
zhuji
10
374.57
20
461.02
40
1
1
123
0
TEXT
8
zhuji
10
388.9
20
437.3
40
1
1
124
0
TEXT
8
zhuji
10
407.54
20
399.61
40
1
1
125
0
TEXT
8
zhuji
10
450.64
20
514.12
40
1
1
126
0
ENDSEC
0
EOF
